<svg t="1716473502791" class="icon" viewBox="0 0 1024 1024" version="1.1" xmlns="http://www.w3.org/2000/svg" p-id="3081" width="100" height="100"><path d="M820.6 489.6l-63.5-52.4c-14.5-12-14.7-31.5-0.4-43.6l-1.2 1c14.2-12 37.7-12.1 52.3-0.1l131 108.2c14.5 12 14.7 31.5 0.4 43.6l1.2-1c-10.1 8.6-25.1 11.1-38.1 7.4h-571c-20.7 0-37.2-14-36.7-31.5 0.4-17.4 17.4-31.5 38.3-31.5h487.7zM78.2 521.2c0.4-17.4 17.4-31.5 38.4-31.5h65.2c20.8 0 37.3 14 36.9 31.5-0.4 17.4-17.4 31.5-38.4 31.5h-65.2c-20.8 0-37.3-14-36.9-31.5z" fill="#17abe3" p-id="3082"></path></svg>